<?xml version="1.0" standalone="no"?>
 <!DOCTYPE svg PUBLIC "-//W3C//DTD SVG 1.1//EN" 
 "http://www.w3.org/Graphics/SVG/1.1/DTD/svg11.dtd"> 
<svg
  xmlns:svg="http://www.w3.org/2000/svg"
  xmlns="http://www.w3.org/2000/svg"
  xmlns:xlink="http://www.w3.org/1999/xlink"
  version="1.1"
  width="106.0450mm" height="56.0324mm" viewBox="0.0000 0.0000 106.0450 56.0324">
<title>SVG Image created as MidiSplitterFrontPanel-Edge_Cuts.svg date 2025/05/11 20:41:20 </title>
  <desc>Image generated by PCBNEW </desc>
<g style="fill:#000000; fill-opacity:1.0000;stroke:#000000; stroke-opacity:1.0000;
stroke-linecap:round; stroke-linejoin:round;"
 transform="translate(0 0) scale(1 1)">
</g>
<g style="fill:none; 
stroke:#D0D2CD; stroke-width:0.0500; stroke-opacity:1; 
stroke-linecap:round; stroke-linejoin:round;">
<circle cx="102.0250" cy="4.0250" r="1.6184" /> 
<circle cx="102.0250" cy="52.0250" r="1.6184" /> 
<circle cx="4.0250" cy="52.0250" r="1.6184" /> 
<circle cx="4.0250" cy="4.0250" r="1.6184" /> 
<path d="M4.0250 0.0250 A4.0000 4.0000 0.0 0 0 0.0250 4.0250" />
<path d="M106.0250 4.0250 A4.0000 4.0000 0.0 0 0 102.0250 0.0250" />
<path d="M102.0250 56.0250 A4.0000 4.0000 0.0 0 0 106.0250 52.0250" />
<path d="M0.0250 52.0250
L0.0250 4.0250
" />
<path d="M106.0250 4.0250
L106.0250 52.0250
" />
<path d="M0.0250 52.0250 A4.0000 4.0000 0.0 0 0 4.0250 56.0250" />
<path d="M102.0250 56.0250
L4.0250 56.0250
" />
<path d="M4.0250 0.0250
L102.0250 0.0250
" />
</g>
<g style="fill:none; 
stroke:#D0D2CD; stroke-width:0.0500; stroke-opacity:1; 
stroke-linecap:round; stroke-linejoin:round;">
<circle cx="102.0250" cy="4.0250" r="1.6184" /> 
<circle cx="102.0250" cy="52.0250" r="1.6184" /> 
<circle cx="4.0250" cy="52.0250" r="1.6184" /> 
<circle cx="4.0250" cy="4.0250" r="1.6184" /> 
<path d="M4.0250 0.0250 A4.0000 4.0000 0.0 0 0 0.0250 4.0250" />
<path d="M106.0250 4.0250 A4.0000 4.0000 0.0 0 0 102.0250 0.0250" />
<path d="M102.0250 56.0250 A4.0000 4.0000 0.0 0 0 106.0250 52.0250" />
<path d="M0.0250 52.0250
L0.0250 4.0250
" />
<path d="M106.0250 4.0250
L106.0250 52.0250
" />
<path d="M0.0250 52.0250 A4.0000 4.0000 0.0 0 0 4.0250 56.0250" />
<path d="M102.0250 56.0250
L4.0250 56.0250
" />
<path d="M4.0250 0.0250
L102.0250 0.0250
" />
</g> 
</svg>
