999
"DXF R12 Output" (www.mydxf.blogspot.com)
 0 
SECTION
 2 
HEADER
 9 
$ACADVER
 1 
AC1009
 9 
$EXTMIN
 10 
 0 
 20 
 0 
 9 
$EXTMAX
 10 
 8.5 
 20 
 11 
 0 
ENDSEC
 0 
SECTION
 2 
ENTITIES
0
POLYLINE
8
Layer 1
62
7
70
0
10
0.000000
20
0.000000
66
1
0
VERTEX
8
Layer 1
10
102.025000
20
53.625800
70
0
0
VERTEX
8
Layer 1
10
101.125865
20
53.353050
70
0
0
VERTEX
8
Layer 1
10
100.529793
20
52.626735
70
0
0
VERTEX
8
Layer 1
10
100.437697
20
51.691666
70
0
0
VERTEX
8
Layer 1
10
100.880618
20
50.863018
70
0
0
VERTEX
8
Layer 1
10
101.709266
20
50.420097
70
0
0
VERTEX
8
Layer 1
10
102.644335
20
50.512193
70
0
0
VERTEX
8
Layer 1
10
103.370650
20
51.108265
70
0
0
VERTEX
8
Layer 1
10
103.643400
20
52.007400
70
0
0
VERTEX
8
Layer 1
10
103.516218
20
52.637354
70
0
0
VERTEX
8
Layer 1
10
103.169382
20
53.151782
70
0
0
VERTEX
8
Layer 1
10
102.654954
20
53.498618
70
0
0
VERTEX
8
Layer 1
10
102.025000
20
53.625800
70
0
0
VERTEX
8
Layer 1
10
102.025000
20
53.625800
70
0
0
SEQEND
8
Layer 1
0
POLYLINE
8
Layer 1
62
7
70
0
10
0.000000
20
0.000000
66
1
0
VERTEX
8
Layer 1
10
102.025000
20
5.625800
70
0
0
VERTEX
8
Layer 1
10
101.125865
20
5.353050
70
0
0
VERTEX
8
Layer 1
10
100.529793
20
4.626735
70
0
0
VERTEX
8
Layer 1
10
100.437697
20
3.691666
70
0
0
VERTEX
8
Layer 1
10
100.880618
20
2.863018
70
0
0
VERTEX
8
Layer 1
10
101.709266
20
2.420097
70
0
0
VERTEX
8
Layer 1
10
102.644335
20
2.512193
70
0
0
VERTEX
8
Layer 1
10
103.370650
20
3.108265
70
0
0
VERTEX
8
Layer 1
10
103.643400
20
4.007400
70
0
0
VERTEX
8
Layer 1
10
103.516218
20
4.637354
70
0
0
VERTEX
8
Layer 1
10
103.169382
20
5.151782
70
0
0
VERTEX
8
Layer 1
10
102.654954
20
5.498618
70
0
0
VERTEX
8
Layer 1
10
102.025000
20
5.625800
70
0
0
VERTEX
8
Layer 1
10
102.025000
20
5.625800
70
0
0
SEQEND
8
Layer 1
0
POLYLINE
8
Layer 1
62
7
70
0
10
0.000000
20
0.000000
66
1
0
VERTEX
8
Layer 1
10
4.025000
20
5.625800
70
0
0
VERTEX
8
Layer 1
10
3.125865
20
5.353050
70
0
0
VERTEX
8
Layer 1
10
2.529793
20
4.626735
70
0
0
VERTEX
8
Layer 1
10
2.437697
20
3.691666
70
0
0
VERTEX
8
Layer 1
10
2.880618
20
2.863018
70
0
0
VERTEX
8
Layer 1
10
3.709266
20
2.420097
70
0
0
VERTEX
8
Layer 1
10
4.644335
20
2.512193
70
0
0
VERTEX
8
Layer 1
10
5.370650
20
3.108265
70
0
0
VERTEX
8
Layer 1
10
5.643400
20
4.007400
70
0
0
VERTEX
8
Layer 1
10
5.520207
20
4.626735
70
0
0
VERTEX
8
Layer 1
10
5.169382
20
5.151782
70
0
0
VERTEX
8
Layer 1
10
4.644335
20
5.502607
70
0
0
VERTEX
8
Layer 1
10
4.025000
20
5.625800
70
0
0
VERTEX
8
Layer 1
10
4.025000
20
5.625800
70
0
0
SEQEND
8
Layer 1
0
POLYLINE
8
Layer 1
62
7
70
0
10
0.000000
20
0.000000
66
1
0
VERTEX
8
Layer 1
10
4.025000
20
53.625800
70
0
0
VERTEX
8
Layer 1
10
3.125865
20
53.353050
70
0
0
VERTEX
8
Layer 1
10
2.529793
20
52.626735
70
0
0
VERTEX
8
Layer 1
10
2.437697
20
51.691666
70
0
0
VERTEX
8
Layer 1
10
2.880618
20
50.863018
70
0
0
VERTEX
8
Layer 1
10
3.709266
20
50.420097
70
0
0
VERTEX
8
Layer 1
10
4.644335
20
50.512193
70
0
0
VERTEX
8
Layer 1
10
5.370650
20
51.108265
70
0
0
VERTEX
8
Layer 1
10
5.643400
20
52.007400
70
0
0
VERTEX
8
Layer 1
10
5.520207
20
52.626735
70
0
0
VERTEX
8
Layer 1
10
5.169382
20
53.151782
70
0
0
VERTEX
8
Layer 1
10
4.644335
20
53.502607
70
0
0
VERTEX
8
Layer 1
10
4.025000
20
53.625800
70
0
0
VERTEX
8
Layer 1
10
4.025000
20
53.625800
70
0
0
SEQEND
8
Layer 1
0
POLYLINE
8
Layer 1
62
7
70
0
10
0.000000
20
0.000000
66
1
0
VERTEX
8
Layer 1
10
4.025000
20
56.007400
70
0
0
VERTEX
8
Layer 1
10
3.240995
20
55.929831
70
0
0
VERTEX
8
Layer 1
10
2.494266
20
55.702918
70
0
0
VERTEX
8
Layer 1
10
1.805798
20
55.335353
70
0
0
VERTEX
8
Layer 1
10
1.196573
20
54.835827
70
0
0
VERTEX
8
Layer 1
10
0.697047
20
54.226602
70
0
0
VERTEX
8
Layer 1
10
0.329482
20
53.538134
70
0
0
VERTEX
8
Layer 1
10
0.102569
20
52.791405
70
0
0
VERTEX
8
Layer 1
10
0.025000
20
52.007400
70
0
0
SEQEND
8
Layer 1
0
POLYLINE
8
Layer 1
62
7
70
0
10
0.000000
20
0.000000
66
1
0
VERTEX
8
Layer 1
10
106.025000
20
52.007400
70
0
0
VERTEX
8
Layer 1
10
105.947431
20
52.791405
70
0
0
VERTEX
8
Layer 1
10
105.720518
20
53.538134
70
0
0
VERTEX
8
Layer 1
10
105.352953
20
54.226602
70
0
0
VERTEX
8
Layer 1
10
104.853427
20
54.835827
70
0
0
VERTEX
8
Layer 1
10
104.244202
20
55.335353
70
0
0
VERTEX
8
Layer 1
10
103.555734
20
55.702918
70
0
0
VERTEX
8
Layer 1
10
102.809005
20
55.929831
70
0
0
VERTEX
8
Layer 1
10
102.025000
20
56.007400
70
0
0
SEQEND
8
Layer 1
0
POLYLINE
8
Layer 1
62
7
70
0
10
0.000000
20
0.000000
66
1
0
VERTEX
8
Layer 1
10
102.025000
20
0.007400
70
0
0
VERTEX
8
Layer 1
10
102.809005
20
0.084969
70
0
0
VERTEX
8
Layer 1
10
103.555734
20
0.311882
70
0
0
VERTEX
8
Layer 1
10
104.244202
20
0.679447
70
0
0
VERTEX
8
Layer 1
10
104.853427
20
1.178973
70
0
0
VERTEX
8
Layer 1
10
105.352953
20
1.788198
70
0
0
VERTEX
8
Layer 1
10
105.720518
20
2.476666
70
0
0
VERTEX
8
Layer 1
10
105.947431
20
3.223395
70
0
0
VERTEX
8
Layer 1
10
106.025000
20
4.007400
70
0
0
SEQEND
8
Layer 1
0
POLYLINE
8
Layer 1
62
7
70
0
10
0.000000
20
0.000000
66
1
0
VERTEX
8
Layer 1
10
0.025000
20
4.007400
70
0
0
VERTEX
8
Layer 1
10
0.025000
20
52.007400
70
0
0
SEQEND
8
Layer 1
0
POLYLINE
8
Layer 1
62
7
70
0
10
0.000000
20
0.000000
66
1
0
VERTEX
8
Layer 1
10
106.025000
20
52.007400
70
0
0
VERTEX
8
Layer 1
10
106.025000
20
4.007400
70
0
0
SEQEND
8
Layer 1
0
POLYLINE
8
Layer 1
62
7
70
0
10
0.000000
20
0.000000
66
1
0
VERTEX
8
Layer 1
10
0.025000
20
4.007400
70
0
0
VERTEX
8
Layer 1
10
0.102569
20
3.223395
70
0
0
VERTEX
8
Layer 1
10
0.329482
20
2.476666
70
0
0
VERTEX
8
Layer 1
10
0.697047
20
1.788198
70
0
0
VERTEX
8
Layer 1
10
1.196573
20
1.178973
70
0
0
VERTEX
8
Layer 1
10
1.805798
20
0.679447
70
0
0
VERTEX
8
Layer 1
10
2.494266
20
0.311882
70
0
0
VERTEX
8
Layer 1
10
3.240995
20
0.084969
70
0
0
VERTEX
8
Layer 1
10
4.025000
20
0.007400
70
0
0
SEQEND
8
Layer 1
0
POLYLINE
8
Layer 1
62
7
70
0
10
0.000000
20
0.000000
66
1
0
VERTEX
8
Layer 1
10
102.025000
20
0.007400
70
0
0
VERTEX
8
Layer 1
10
4.025000
20
0.007400
70
0
0
SEQEND
8
Layer 1
0
POLYLINE
8
Layer 1
62
7
70
0
10
0.000000
20
0.000000
66
1
0
VERTEX
8
Layer 1
10
4.025000
20
56.007400
70
0
0
VERTEX
8
Layer 1
10
102.025000
20
56.007400
70
0
0
SEQEND
8
Layer 1
0
POLYLINE
8
Layer 1
62
7
70
0
10
0.000000
20
0.000000
66
1
0
VERTEX
8
Layer 1
10
102.025000
20
53.625800
70
0
0
VERTEX
8
Layer 1
10
101.125865
20
53.353050
70
0
0
VERTEX
8
Layer 1
10
100.529793
20
52.626735
70
0
0
VERTEX
8
Layer 1
10
100.437697
20
51.691666
70
0
0
VERTEX
8
Layer 1
10
100.880618
20
50.863018
70
0
0
VERTEX
8
Layer 1
10
101.709266
20
50.420097
70
0
0
VERTEX
8
Layer 1
10
102.644335
20
50.512193
70
0
0
VERTEX
8
Layer 1
10
103.370650
20
51.108265
70
0
0
VERTEX
8
Layer 1
10
103.643400
20
52.007400
70
0
0
VERTEX
8
Layer 1
10
103.516218
20
52.637354
70
0
0
VERTEX
8
Layer 1
10
103.169382
20
53.151782
70
0
0
VERTEX
8
Layer 1
10
102.654954
20
53.498618
70
0
0
VERTEX
8
Layer 1
10
102.025000
20
53.625800
70
0
0
VERTEX
8
Layer 1
10
102.025000
20
53.625800
70
0
0
SEQEND
8
Layer 1
0
POLYLINE
8
Layer 1
62
7
70
0
10
0.000000
20
0.000000
66
1
0
VERTEX
8
Layer 1
10
102.025000
20
5.625800
70
0
0
VERTEX
8
Layer 1
10
101.125865
20
5.353050
70
0
0
VERTEX
8
Layer 1
10
100.529793
20
4.626735
70
0
0
VERTEX
8
Layer 1
10
100.437697
20
3.691666
70
0
0
VERTEX
8
Layer 1
10
100.880618
20
2.863018
70
0
0
VERTEX
8
Layer 1
10
101.709266
20
2.420097
70
0
0
VERTEX
8
Layer 1
10
102.644335
20
2.512193
70
0
0
VERTEX
8
Layer 1
10
103.370650
20
3.108265
70
0
0
VERTEX
8
Layer 1
10
103.643400
20
4.007400
70
0
0
VERTEX
8
Layer 1
10
103.516218
20
4.637354
70
0
0
VERTEX
8
Layer 1
10
103.169382
20
5.151782
70
0
0
VERTEX
8
Layer 1
10
102.654954
20
5.498618
70
0
0
VERTEX
8
Layer 1
10
102.025000
20
5.625800
70
0
0
VERTEX
8
Layer 1
10
102.025000
20
5.625800
70
0
0
SEQEND
8
Layer 1
0
POLYLINE
8
Layer 1
62
7
70
0
10
0.000000
20
0.000000
66
1
0
VERTEX
8
Layer 1
10
4.025000
20
5.625800
70
0
0
VERTEX
8
Layer 1
10
3.125865
20
5.353050
70
0
0
VERTEX
8
Layer 1
10
2.529793
20
4.626735
70
0
0
VERTEX
8
Layer 1
10
2.437697
20
3.691666
70
0
0
VERTEX
8
Layer 1
10
2.880618
20
2.863018
70
0
0
VERTEX
8
Layer 1
10
3.709266
20
2.420097
70
0
0
VERTEX
8
Layer 1
10
4.644335
20
2.512193
70
0
0
VERTEX
8
Layer 1
10
5.370650
20
3.108265
70
0
0
VERTEX
8
Layer 1
10
5.643400
20
4.007400
70
0
0
VERTEX
8
Layer 1
10
5.520207
20
4.626735
70
0
0
VERTEX
8
Layer 1
10
5.169382
20
5.151782
70
0
0
VERTEX
8
Layer 1
10
4.644335
20
5.502607
70
0
0
VERTEX
8
Layer 1
10
4.025000
20
5.625800
70
0
0
VERTEX
8
Layer 1
10
4.025000
20
5.625800
70
0
0
SEQEND
8
Layer 1
0
POLYLINE
8
Layer 1
62
7
70
0
10
0.000000
20
0.000000
66
1
0
VERTEX
8
Layer 1
10
4.025000
20
53.625800
70
0
0
VERTEX
8
Layer 1
10
3.125865
20
53.353050
70
0
0
VERTEX
8
Layer 1
10
2.529793
20
52.626735
70
0
0
VERTEX
8
Layer 1
10
2.437697
20
51.691666
70
0
0
VERTEX
8
Layer 1
10
2.880618
20
50.863018
70
0
0
VERTEX
8
Layer 1
10
3.709266
20
50.420097
70
0
0
VERTEX
8
Layer 1
10
4.644335
20
50.512193
70
0
0
VERTEX
8
Layer 1
10
5.370650
20
51.108265
70
0
0
VERTEX
8
Layer 1
10
5.643400
20
52.007400
70
0
0
VERTEX
8
Layer 1
10
5.520207
20
52.626735
70
0
0
VERTEX
8
Layer 1
10
5.169382
20
53.151782
70
0
0
VERTEX
8
Layer 1
10
4.644335
20
53.502607
70
0
0
VERTEX
8
Layer 1
10
4.025000
20
53.625800
70
0
0
VERTEX
8
Layer 1
10
4.025000
20
53.625800
70
0
0
SEQEND
8
Layer 1
0
POLYLINE
8
Layer 1
62
7
70
0
10
0.000000
20
0.000000
66
1
0
VERTEX
8
Layer 1
10
4.025000
20
56.007400
70
0
0
VERTEX
8
Layer 1
10
3.240995
20
55.929831
70
0
0
VERTEX
8
Layer 1
10
2.494266
20
55.702918
70
0
0
VERTEX
8
Layer 1
10
1.805798
20
55.335353
70
0
0
VERTEX
8
Layer 1
10
1.196573
20
54.835827
70
0
0
VERTEX
8
Layer 1
10
0.697047
20
54.226602
70
0
0
VERTEX
8
Layer 1
10
0.329482
20
53.538134
70
0
0
VERTEX
8
Layer 1
10
0.102569
20
52.791405
70
0
0
VERTEX
8
Layer 1
10
0.025000
20
52.007400
70
0
0
SEQEND
8
Layer 1
0
POLYLINE
8
Layer 1
62
7
70
0
10
0.000000
20
0.000000
66
1
0
VERTEX
8
Layer 1
10
106.025000
20
52.007400
70
0
0
VERTEX
8
Layer 1
10
105.947431
20
52.791405
70
0
0
VERTEX
8
Layer 1
10
105.720518
20
53.538134
70
0
0
VERTEX
8
Layer 1
10
105.352953
20
54.226602
70
0
0
VERTEX
8
Layer 1
10
104.853427
20
54.835827
70
0
0
VERTEX
8
Layer 1
10
104.244202
20
55.335353
70
0
0
VERTEX
8
Layer 1
10
103.555734
20
55.702918
70
0
0
VERTEX
8
Layer 1
10
102.809005
20
55.929831
70
0
0
VERTEX
8
Layer 1
10
102.025000
20
56.007400
70
0
0
SEQEND
8
Layer 1
0
POLYLINE
8
Layer 1
62
7
70
0
10
0.000000
20
0.000000
66
1
0
VERTEX
8
Layer 1
10
102.025000
20
0.007400
70
0
0
VERTEX
8
Layer 1
10
102.809005
20
0.084969
70
0
0
VERTEX
8
Layer 1
10
103.555734
20
0.311882
70
0
0
VERTEX
8
Layer 1
10
104.244202
20
0.679447
70
0
0
VERTEX
8
Layer 1
10
104.853427
20
1.178973
70
0
0
VERTEX
8
Layer 1
10
105.352953
20
1.788198
70
0
0
VERTEX
8
Layer 1
10
105.720518
20
2.476666
70
0
0
VERTEX
8
Layer 1
10
105.947431
20
3.223395
70
0
0
VERTEX
8
Layer 1
10
106.025000
20
4.007400
70
0
0
SEQEND
8
Layer 1
0
POLYLINE
8
Layer 1
62
7
70
0
10
0.000000
20
0.000000
66
1
0
VERTEX
8
Layer 1
10
0.025000
20
4.007400
70
0
0
VERTEX
8
Layer 1
10
0.025000
20
52.007400
70
0
0
SEQEND
8
Layer 1
0
POLYLINE
8
Layer 1
62
7
70
0
10
0.000000
20
0.000000
66
1
0
VERTEX
8
Layer 1
10
106.025000
20
52.007400
70
0
0
VERTEX
8
Layer 1
10
106.025000
20
4.007400
70
0
0
SEQEND
8
Layer 1
0
POLYLINE
8
Layer 1
62
7
70
0
10
0.000000
20
0.000000
66
1
0
VERTEX
8
Layer 1
10
0.025000
20
4.007400
70
0
0
VERTEX
8
Layer 1
10
0.102569
20
3.223395
70
0
0
VERTEX
8
Layer 1
10
0.329482
20
2.476666
70
0
0
VERTEX
8
Layer 1
10
0.697047
20
1.788198
70
0
0
VERTEX
8
Layer 1
10
1.196573
20
1.178973
70
0
0
VERTEX
8
Layer 1
10
1.805798
20
0.679447
70
0
0
VERTEX
8
Layer 1
10
2.494266
20
0.311882
70
0
0
VERTEX
8
Layer 1
10
3.240995
20
0.084969
70
0
0
VERTEX
8
Layer 1
10
4.025000
20
0.007400
70
0
0
SEQEND
8
Layer 1
0
POLYLINE
8
Layer 1
62
7
70
0
10
0.000000
20
0.000000
66
1
0
VERTEX
8
Layer 1
10
102.025000
20
0.007400
70
0
0
VERTEX
8
Layer 1
10
4.025000
20
0.007400
70
0
0
SEQEND
8
Layer 1
0
POLYLINE
8
Layer 1
62
7
70
0
10
0.000000
20
0.000000
66
1
0
VERTEX
8
Layer 1
10
4.025000
20
56.007400
70
0
0
VERTEX
8
Layer 1
10
102.025000
20
56.007400
70
0
0
SEQEND
8
Layer 1
 0 
ENDSEC
 0 
EOF